<svg xmlns="http://www.w3.org/2000/svg" xmlns:xlink="http://www.w3.org/1999/xlink" width="435.051" height="38.661" viewBox="0 0 435.051 38.661">
  <defs>
    <clipPath id="clip-path">
      <rect id="Rectangle_109" data-name="Rectangle 109" width="435.051" height="38.661" fill="none"/>
    </clipPath>
  </defs>
  <g id="Mask_Group_169" data-name="Mask Group 169" clip-path="url(#clip-path)">
    <path id="Path_7028" data-name="Path 7028" d="M109.817,53.357l6.294,0a.406.406,0,0,0,.409-.417l-.214-5.492c0-.007,0-.014,0-.022l.212-14.057a.407.407,0,0,0-.453-.406l-3.039.32a.423.423,0,0,1-.087,0l-3.076-.315a.406.406,0,0,0-.452.423l.365,6.343a.293.293,0,0,1,0,.033l-.369,13.179a.406.406,0,0,0,.41.413" transform="translate(-63.229 -19.048)" fill="#f4c445"/>
    <path id="Path_7029" data-name="Path 7029" d="M41.32,38.959l.006-.022v-.023c-.054-1.685-.046-5.985-.039-7.694a69.33,69.33,0,0,0-.515-10.853c-.856-5.462-3.537-9.8-6.832-11.047-2.449-.928-5.211-.209-7.989,2.08-.492.2-.924.966-1.381,1.778-.4.705-.892,1.587-1.179,1.509a12.455,12.455,0,0,1-.853-1.22A16.3,16.3,0,0,0,20.9,11.214c-4.279-3.862-10.59-2.207-13.155-1a2.526,2.526,0,0,0-.832-1.966C5.72,7.227,3.527,7.391,1.9,7.708-.28,8.132.162,10.532.517,12.46a10.1,10.1,0,0,1,.228,1.721C.715,16.552.546,19.07.382,21.5A96.449,96.449,0,0,0,.27,36.869c.011.091.016.186.022.28a1.359,1.359,0,0,0,.455,1.145l.044.032,6.094-.258.006-.144c.071-1.534.03-4.795-.011-6.315-.042-1.571-.085-3.2,0-4.774.107-2.057.28-5,.544-6.841a5.217,5.217,0,0,1,4.2-4.683c2.2-.386,4.774,1.142,5.905,3.241A96.558,96.558,0,0,1,18.72,35.138q.014.981.029,1.958l0,.177,6.417-.887.008-.128c.1-1.611.035-3.39-.028-5.273-.136-4.048-.278-8.234,1.076-11.475a4.757,4.757,0,0,1,3.485-2.957,3.116,3.116,0,0,1,2.925,1.2c1.344,1.633,2.273,6.128,2.478,8.65a46.864,46.864,0,0,1,.017,5.248c-.054,1.59-.109,5.766-.018,7.315,0,.407.458.672,1.362.788a8.781,8.781,0,0,0,1.081.058c1.562,0,3.615-.282,3.765-.856" transform="translate(0 -4.315)" fill="#a850b0"/>
    <path id="Path_7030" data-name="Path 7030" d="M138.213,48.431h6.139c.643-2.879-.116-5.8-.015-8.876a42.981,42.981,0,0,1,.54-5.469c.97-3.448,5.516-4.254,8.267-2.565,2.778,1.7,2.656,6.967,3.5,9.919a28.252,28.252,0,0,0,2.359,6.7c2.394,4.552,11.561,4.547,13.451,4.216l-.065-5.535c-1.559-.378-7.055.33-8.374-2.571-1.6-3.526-1.538-6.084-2.075-9.1a13.182,13.182,0,0,0-2.43-6.135c-4.016-5.417-8.664-5.173-14.59-3.561l-.748-1.539h-6.139c-1.073,0-.187,3.262-.166,3.943.209,6.855-.344,13.738.347,20.566" transform="translate(-79.467 -13.825)" fill="#6bc88e"/>
    <path id="Path_7031" data-name="Path 7031" d="M211.768,45.449l3.061-.211a.686.686,0,0,1,.093,0l2.6.2a.643.643,0,0,0,.692-.652l-.165-7.969.152-7.57a.643.643,0,0,0-.644-.656l-5.795,0a.643.643,0,0,0-.64.7l.2,2.218a.628.628,0,0,1,0,.069L211.081,44.8a.643.643,0,0,0,.687.652" transform="translate(-121.989 -16.524)" fill="#e6594d"/>
    <path id="Path_7032" data-name="Path 7032" d="M104.289,6.609a13.271,13.271,0,0,0,1.922.48c.255.05.58.055.64.333A5.565,5.565,0,0,1,106.84,8.8a5.168,5.168,0,0,0,.012.78c.031.335,0,.744.249,1a1.006,1.006,0,0,0,.735.263c.424-.011.606-.291.82-.614.307-.462.662-.885.985-1.334.2-.282.277-.594.643-.514.454.1.9.311,1.35.445a13.852,13.852,0,0,0,1.355.345,1,1,0,0,0,.972-.148c.515-.5.2-1.128-.189-1.557-.3-.33-.61-.655-.91-.987-.131-.145-.651-.59-.65-.8,0-.122.467-.464.582-.582a10.392,10.392,0,0,0,.819-.946c.212-.276.57-.638.557-1.011a.776.776,0,0,0-.647-.7,4.263,4.263,0,0,0-1.094.106,9.688,9.688,0,0,0-1.318.183c-.261.062-.574.27-.842.2-.312-.078-.5-.493-.671-.742-.132-.19-.26-.383-.387-.577A3.187,3.187,0,0,0,108.5.67a.937.937,0,0,0-1.395.671c-.113.727-.157,1.471-.23,2.2-.025.108-.046.219-.069.327-.019.086-.039.173-.057.259-.465.135-.923.289-1.395.405-.55.136-1.7.281-1.9.913-.176.557.385,1,.835,1.159" transform="translate(-59.77 -0.309)" fill="#f4c445"/>
    <path id="Path_7033" data-name="Path 7033" d="M476.276,32.875c3.064,11.461,15.768,11.606,23.386,3.369l-3.1-3.515c-3.853,3.061-11.722,5.72-13.228-.287l15.838-6.189c-3.769-18.17-27.412-10.268-22.9,6.623m8.505-11.151c2.485-1.364,5.832-1.754,7.528,1.442a2.352,2.352,0,0,1-1.218,1.387c-.95.461-7.916,3.222-8.43,3.109-1.625-1.32.63-5.119,2.121-5.938" transform="translate(-274.923 -9.171)" fill="#a850b0"/>
    <path id="Path_7034" data-name="Path 7034" d="M315.82,32.587c-1.557.411-3.322,1.877-5.571,2.3-4.926.916-10.51,1.954-15.472-1.165-6.412-4.03-6.5-10.01-6.589-16.34a47.337,47.337,0,0,0-.606-8.25l0-.019-.016-.011c-.728-.527-4.819-.105-5.471.564a3.021,3.021,0,0,0-.473,1.043,5.263,5.263,0,0,1-.386.968c-.791,1.34-1.63,2.682-2.441,3.98a84.186,84.186,0,0,0-5.208,9.173.059.059,0,0,1-.033,0c-.736-.153-4.585-6.517-7.132-10.728-1.486-2.456-2.66-4.4-3-4.79-.6-.523-1.88-.329-3.239-.123a7.393,7.393,0,0,1-2.854.106l-.063-.019-.346,32.071v.049h6.347V25.764c0-.171.294-2.087.363-2.5.078-.473.212-.8.6-.872.514.786,1.026,1.631,1.567,2.525.9,1.489,1.836,3.03,2.783,4.287.188.249,1.76,2.288,1.9,2.378.676.428,5.213.421,5.985-.352a36.773,36.773,0,0,0,2.1-3.506,25.862,25.862,0,0,1,3.094-4.806c.059-.062.111-.125.161-.183.223-.264.371-.441.787-.356a18.4,18.4,0,0,0,13.228,18.96c2.176.658,5.879.843,10.161.506,4.158-.327,6.92-1.2,9.422-2.94.075-.052.856-.421.94-.441.26-.062.438-.363.555-.752l0-.011-.734-4.053Z" transform="translate(-148.477 -5.121)" fill="#868cf7"/>
    <path id="Path_7035" data-name="Path 7035" d="M408.041,9.084l-.425-.131-.076.439a7.413,7.413,0,0,0-.081,2.5,11.532,11.532,0,0,1,.085,1.793c-.042,1.617-.1,3.244-.159,4.877-.167,4.7-.34,9.556-.132,14.295,0,.046.258,4.593.675,4.927l.05.04.06.022a3.7,3.7,0,0,0,1.279.2c.284,0,.563-.019.828-.038l.074-.005c.672-.046,2.883-.261,3.125-1.092l.017-.057-.348-18.234c.1.157.187.314.252.425a5,5,0,0,0,.379.6c.647.786,1.275,1.508,1.881,2.206a49.107,49.107,0,0,1,3.661,4.581,50.826,50.826,0,0,0,3.905,4.876,54.236,54.236,0,0,1,3.611,4.449l.08.083c.628.484,3.889.085,4.542-.037.549-.1.772-.2.882-.382l.056-.093.08-27.747-.015-.053c-.341-1.195-2.57-.8-4.926-.189l-.584.146.328,19.087L413.733,9.194l-.058-.06c-.74-.623-2.053-.4-3.324-.186a6.1,6.1,0,0,1-2.31.137" transform="translate(-235.308 -3.898)" fill="#e6594d"/>
    <path id="Path_7036" data-name="Path 7036" d="M346.377,26.774a12.459,12.459,0,0,0,7.363,2.3,12.792,12.792,0,0,0,5.786-1.348c3.909-1.992,6.039-5.716,6-10.486a10.55,10.55,0,0,0-3.43-7.693,12.442,12.442,0,0,0-9.111-3.231c-4.7.3-9.716,4.723-10.515,9.272-.831,4.731.557,8.7,3.91,11.181m6.714-13.809a4.587,4.587,0,0,1,4.509,1.608,5.685,5.685,0,0,1,.763,5.519,4.641,4.641,0,0,1-3.909,2.865,4.9,4.9,0,0,1-5.508-4.429,4.694,4.694,0,0,1,4.145-5.564" transform="translate(-197.785 -3.639)" fill="#6bc88e"/>
    <path id="Path_7037" data-name="Path 7037" d="M541.082,3.548a.288.288,0,0,1,.29.3c-.06,1.326-.249,6.711.506,9.548.146.548,1.432,3.307,1.744,3.963,2.139,4.5,11.455,2.989,12.2-1.165a35.434,35.434,0,0,0,.215-6.015,36.329,36.329,0,0,1-.215-5.156l6.159.566c.272,7.924,1.555,21.195-2.646,28.5-3.141,5.465-14.2,6.084-18.483,1.014-.537-.635-3.448-5.3-1.65-5.3h5.121c.45,3.527,3.411,4.2,7.082,3.531,2.869-.526,5.3-4.261,4.217-9.324-5.576,1.818-10.564,1.619-15.536-1.988-2.231-1.619-3.149-4.561-4.038-7.688a17.827,17.827,0,0,1-.683-5.852l-.094-4.657a.278.278,0,0,1,.278-.284Z" transform="translate(-309.345 -2.05)" fill="#f1c543"/>
    <path id="Path_7038" data-name="Path 7038" d="M1000.627,17.644a23.3,23.3,0,0,0-2.269-1.074c-1.784-.779-4.771-2.083-4.992-3.012a.722.722,0,0,1,.2-.738,3.139,3.139,0,0,1,2.5-.588,4.332,4.332,0,0,1,2.52,1.061l.45.415.2.129a.845.845,0,0,0,.742.058,7.391,7.391,0,0,0,3.1-2.285l.1-.268-.14-.25A9.407,9.407,0,0,0,996.772,6.8a9.183,9.183,0,0,0-7.324,1.624c-2.428,1.69-2.524,3.831-1.921,6.526.735,3.286,4.059,4.715,6.991,5.976,2.121.912,4.124,1.773,4.4,3.095a2.53,2.53,0,0,1-.853,2.792,4.808,4.808,0,0,1-4.873-.239,14.773,14.773,0,0,1-3.107-2.36l-.314-.295-3.995,2.053.264.537c1.8,3.661,4.159,5.538,7.819,6.059a17.358,17.358,0,0,0,2.82.148,7.87,7.87,0,0,0,7.809-5.882,8.222,8.222,0,0,0-3.856-9.19" transform="translate(-569.704 -3.811)" fill="#a850b0"/>
    <path id="Path_7039" data-name="Path 7039" d="M828.975,29.461c-3.227-2.652-3.835-3.789-6.677-6-2.976-2.314-4.228-1.563-5.429-2.483C817.443,20.29,827.738,4.2,827.778,3.8a1.283,1.283,0,0,0-.359-1.177c-.173-.233-4.5-1.418-4.694-1.527-.367-.206-.655-.362-1.014-.008C821.349,2.5,810.993,19.72,810.3,18.805l-.741-14.57-6.376.728,1.2,33.732,6.042-.172c.661-4.474-.333-5.6.292-9.944.188-1.309,2.568-2.5,3.641-2.305,2.816.517,6.093,3.291,8.6,5.663a27.187,27.187,0,0,0,4.252,3.949c7.868,4.539,17.784,2.924,22.949.354a.233.233,0,0,0,.136-.265l-1.105-4.421a.228.228,0,0,0-.3-.161c-7.131,2.563-14.629,2.408-19.913-1.934" transform="translate(-464.181 -0.509)" fill="#f1c543"/>
    <path id="Path_7040" data-name="Path 7040" d="M752.493,13.6l-1,2.773c-12.384-7.915-24.058,6.706-16.621,19.008,2.9,4.793,7.12,6.189,12.42,4.687,1.429-.4,2.752-1.7,4.4-1.582l1.079,2.919,5.029.035.093-17.725c-.355-2.814.408-10.323-.132-10.672Zm-.4,16.582c-.242,2.81-4.755,4.643-7.15,4.512-5.729-.314-8.489-8.111-4.547-12.214,3.04-3.164,10.325-1.85,11.2,2.714.118.611.532,4.54.493,4.989" transform="translate(-423.357 -7.537)" fill="#a850b0"/>
    <path id="Path_7041" data-name="Path 7041" d="M865.34,5.827c-4.642,5.181-4.19,15.353,1.508,19.632,5.251,3.944,12.788,2.6,17.406-.254a.6.6,0,0,0,.219-.758L882.823,20.9a.6.6,0,0,0-.842-.272,17.1,17.1,0,0,1-5.384,1.469c-3.618.561-8.028-1.091-7.975-5.512l17.66-1.056c1.177-12.23-13.207-18.332-20.942-9.7m13.676,5.141c-1.919-.539-12.2,2.261-8.137-2.064,2.013-2.142,5.768-2.478,7.853-.276.659.7,1.469,1.954.284,2.341" transform="translate(-498.278 -1.031)" fill="#6bc88e"/>
    <path id="Path_7042" data-name="Path 7042" d="M655.845,2.3c-8.162-1.52-10.442,4.614-11.3,6.65-.816,1.926-.5,2.744-1.527,3.138-.8.306-1.1-1.66-2.214-2.974-3.821-3.365-8.614-1.066-11.3,1.828l-.634-2.394a1.072,1.072,0,0,0-1.225-.681l-3.185.469a1.262,1.262,0,0,0-1.183,1.284l.6,5.644.709,9.54c-.139,4.137.264,5.738.527,10.525.259.738,6.392.661,6.292-.5-.1-3.331-.512-4.608-.535-7.9-.016-2.338-.328-7.93.934-9.808,1.85-2.754,6.8-1.857,8.226.908,2.414,4.684,2.384,11.475,3.125,16.564l3.576.027c1.037-.018,3.078.1,3.014-.937-.346-5.608-2.071-12.124-1.471-17.742.823-7.7,7.473-9.061,8.78-3.4.434,1.88,1.551,8.1,1.828,10.1.434,3.141.465,7.415.883,10.559l7.3-.05a7.979,7.979,0,0,0-.127-1.371c-.368-6.679-2-17.9-4.338-23.868-1.062-2.709-2.808-5.042-6.745-5.611" transform="translate(-360.201 -1.192)" fill="#e6594d"/>
    <path id="Path_7043" data-name="Path 7043" d="M958.815,34.632l-1.947-.048a7.29,7.29,0,0,1-3.5-1.242,28.646,28.646,0,0,1-3.63-3.9c-.661-.886-3.87-4.23-4.025-4.7a.93.93,0,0,1,0-.748c4.016-2.485,4.592-8.608,2.4-12.654-2.538-4.675-8.13-6.65-13.087-6.513-1.015.028-6.117-.313-6.148.623-.042,1.257.1,3.583.084,4.736-.055,3.1-.291,6.714-.358,9.826-.13,6.011.086,12.049.06,18.061l.261.41,5.6-.192v-9.73c0-.7,2.819-1.209,3.45-1.2,2.418.044,4.9,2.238,6.394,4.022.787.938,5.274,6.045,5.916,6.369.03.015.869.537.9.551l1.193.463a29.439,29.439,0,0,0,5.026.819l3.288-.018.067-4.9ZM934.842,21.9a14.1,14.1,0,0,0-.074-3.27c-.013-.859.057-2.4.066-3.381a22.8,22.8,0,0,1,.056-4.569c2.378-.3,5.536.007,7.383,1.778A8.253,8.253,0,0,1,944,15.605c.927,6.076-4.844,6.412-9.163,6.3" transform="translate(-536.638 -2.766)" fill="#868cf7"/>
    <path id="Path_7044" data-name="Path 7044" d="M217.355,2.383C215.946.448,214.016-.81,212.065.606c-.051.036-.743.476-.79.516-.108.068-.687.724-.789.826-1.7,1.679-.888,4.58.237,5.567a4.823,4.823,0,0,0,6.18.454c1.808-1.466,1.822-3.708.454-5.587m-2.586,3.336c-1.152,1.121-2.589-.8-1.5-1.953.533-.456,1.173-.6,1.638-.1a1.823,1.823,0,0,1-.138,2.053" transform="translate(-121.081 0)" fill="#e6594d"/>
  </g>
</svg>
